HIERARCHY
ROOT Hips
{
	OFFSET 0.000000 0.000000 0.000000
	CHANNELS 6 Xposition Yposition Zposition Xrotation Yrotation Zrotation
	JOINT LeftUpLeg_virtual
	{
		OFFSET 0.000000 0.000000 0.000000
		CHANNELS 3 Xrotation Yrotation Zrotation
		JOINT LeftUpLeg
		{
			OFFSET 15.427100 -6.655098 0.678600
			CHANNELS 3 Xrotation Yrotation Zrotation
			JOINT LeftLeg
			{
				OFFSET 4.081073 -39.591068 13.024000
				CHANNELS 3 Xrotation Yrotation Zrotation
				JOINT LeftFoot
				{
					OFFSET -4.081074 -37.707932 -15.979700
					CHANNELS 3 Xrotation Yrotation Zrotation
					JOINT LeftToeBase
					{
						OFFSET 5.346399 -15.068900 20.645000
						CHANNELS 3 Xrotation Yrotation Zrotation
						JOINT LeftToe_End
						{
							OFFSET 2.754700 0.931300 11.300900
							CHANNELS 3 Xrotation Yrotation Zrotation
							End Site
							{
								OFFSET 0 0 0
							}
						}
					}
				}
			}
		}
	}
	JOINT RightUpLeg_virtual
	{
		OFFSET 0.000000 0.000000 0.000000
		CHANNELS 3 Xrotation Yrotation Zrotation
		JOINT RightUpLeg
		{
			OFFSET -15.569500 -6.655098 0.678600
			CHANNELS 3 Xrotation Yrotation Zrotation
			JOINT RightLeg
			{
				OFFSET -4.081825 -39.591045 13.023800
				CHANNELS 3 Xrotation Yrotation Zrotation
				JOINT RightFoot
				{
					OFFSET 4.081824 -37.707954 -15.979600
					CHANNELS 3 Xrotation Yrotation Zrotation
					JOINT RightToeBase
					{
						OFFSET -5.346400 -15.068900 20.645000
						CHANNELS 3 Xrotation Yrotation Zrotation
						JOINT RightToe_End
						{
							OFFSET -2.754700 0.931300 11.300900
							CHANNELS 3 Xrotation Yrotation Zrotation
							End Site
							{
								OFFSET 0 0 0
							}
						}
					}
				}
			}
		}
	}
	JOINT Spine_virtual
	{
		OFFSET 0.000000 0.000000 0.000000
		CHANNELS 3 Xrotation Yrotation Zrotation
		JOINT Spine
		{
			OFFSET -0.279200 12.230698 -2.892100
			CHANNELS 3 Xrotation Yrotation Zrotation
			JOINT Spine1
			{
				OFFSET -0.232667 10.192268 -1.242267
				CHANNELS 3 Xrotation Yrotation Zrotation
				JOINT Spine1_split
				{
					OFFSET -0.232667 10.192268 -1.242267
					CHANNELS 3 Xrotation Yrotation Zrotation
					JOINT Spine2
					{
						OFFSET -0.232667 10.192268 -1.242267
						CHANNELS 3 Xrotation Yrotation Zrotation
						JOINT Neck_virtual
						{
							OFFSET 0.000000 0.000000 0.000000
							CHANNELS 3 Xrotation Yrotation Zrotation
							JOINT Neck
							{
								OFFSET -0.418800 17.814194 8.416900
								CHANNELS 3 Xrotation Yrotation Zrotation
								JOINT Head
								{
									OFFSET 0.000000 7.031097 3.806800
									CHANNELS 3 Xrotation Yrotation Zrotation
									JOINT HeadTop_End
									{
										OFFSET 0.000000 24.646606 12.978600
										CHANNELS 3 Xrotation Yrotation Zrotation
										End Site
										{
											OFFSET 0 0 0
										}
									}
								}
							}
						}
						JOINT LeftShoulder_virtual
						{
							OFFSET 0.000000 0.000000 0.000000
							CHANNELS 3 Xrotation Yrotation Zrotation
							JOINT LeftShoulder
							{
								OFFSET 8.476499 7.247704 -3.868750
								CHANNELS 3 Xrotation Yrotation Zrotation
								JOINT LeftShoulder_split
								{
									OFFSET 8.476499 7.247704 -3.868750
									CHANNELS 3 Xrotation Yrotation Zrotation
									JOINT LeftArm
									{
										OFFSET 9.308998 -2.777710 0.208600
										CHANNELS 3 Xrotation Yrotation Zrotation
										JOINT LeftForeArm
										{
											OFFSET 29.972298 0.000000 0.000000
											CHANNELS 3 Xrotation Yrotation Zrotation
											JOINT LeftHand
											{
												OFFSET 26.026505 0.000000 0.000000
												CHANNELS 3 Xrotation Yrotation Zrotation
												End Site
												{
													OFFSET 0 0 0
												}
											}
										}
									}
								}
							}
						}
						JOINT RightShoulder_virtual
						{
							OFFSET 0.000000 0.000000 0.000000
							CHANNELS 3 Xrotation Yrotation Zrotation
							JOINT RightShoulder
							{
								OFFSET -7.570500 7.247704 -3.868750
								CHANNELS 3 Xrotation Yrotation Zrotation
								JOINT RightShoulder_split
								{
									OFFSET -7.570500 7.247704 -3.868750
									CHANNELS 3 Xrotation Yrotation Zrotation
									JOINT RightArm
									{
										OFFSET -9.308998 -2.777710 0.208500
										CHANNELS 3 Xrotation Yrotation Zrotation
										JOINT RightForeArm
										{
											OFFSET -29.972300 0.000000 0.000000
											CHANNELS 3 Xrotation Yrotation Zrotation
											JOINT RightHand
											{
												OFFSET -26.026505 0.000000 0.000000
												CHANNELS 3 Xrotation Yrotation Zrotation
												End Site
												{
													OFFSET 0 0 0
												}
											}
										}
									}
								}
							}
						}
					}
				}
			}
		}
	}
}
MOTION
Frames: 5
Frame Time: 0.03333333
-0.473749 83.067940 6.187786 0.000000 0.000000 0.000000 -15.285145 -1.638381 -5.227040 -27.516925 23.099749 10.050080 39.548168 -8.393741 10.330876 -2.232525 -6.633656 -0.090298 -2.559752 0.024335 -0.952728 0.000000 0.000000 0.000000 -14.787389 -0.853429 -5.259801 -14.642974 -30.941413 3.271744 34.406672 9.160493 -12.434011 -1.533022 8.599469 -5.444389 -1.779561 0.534579 0.134283 0.000000 0.000000 0.000000 -14.987897 -2.297774 -5.935059 5.271168 -1.351737 3.057558 13.417937 -0.861420 -0.181348 0.473531 2.419943 -0.404986 0.000000 0.000000 0.000000 11.898363 -0.329198 -0.350900 11.180743 1.033025 1.391714 -1.588877 1.537912 3.387980 0.000000 0.000000 0.000000 12.277993 -0.164689 -0.476834 0.781716 7.260628 -10.093161 -2.103692 -2.507485 -0.547342 82.400140 -69.408669 11.177900 0.081415 -25.152472 1.235154 0.000000 0.000000 0.000000 12.411697 -0.368226 -0.486407 1.557888 -1.288470 10.852744 5.923776 0.374709 -2.329752 6.151191 35.259561 58.548573 -0.943222 27.702803 0.462036 0.000000 0.000000 0.000000 
-0.444398 83.074921 6.193771 0.000000 0.000000 0.000000 -15.294086 -1.691320 -5.195103 -27.499221 23.213819 10.028365 39.540566 -8.383339 10.323111 -2.242801 -6.648804 -0.065359 -2.554748 0.022112 -0.942038 0.000000 0.000000 0.000000 -14.797702 -0.906265 -5.226781 -14.681461 -30.821150 3.268072 34.411412 9.131994 -12.474407 -1.533630 8.560780 -5.430824 -1.720405 0.528883 0.145124 0.000000 0.000000 0.000000 -14.990798 -2.347658 -5.901686 5.267915 -1.340253 3.044624 13.414975 -0.845474 -0.178566 0.470130 2.409165 -0.400935 0.000000 0.000000 0.000000 11.895024 -0.314383 -0.350036 11.203761 1.034449 1.361605 -1.611632 1.544241 3.390165 0.000000 0.000000 0.000000 12.274392 -0.152587 -0.472881 0.781429 7.271637 -10.145858 -2.107302 -2.472859 -0.554940 82.248496 -69.325266 11.109010 0.081479 -25.231825 1.232376 0.000000 0.000000 0.000000 12.402433 -0.353982 -0.481551 1.556106 -1.285468 10.832800 5.901570 0.376063 -2.329705 6.152491 35.268915 58.517823 -0.948219 27.662128 0.466065 0.000000 0.000000 0.000000 
-0.421069 83.077118 6.201157 0.000000 0.000000 0.000000 -15.299123 -1.736710 -5.158212 -27.479115 23.322917 10.001903 39.533507 -8.371543 10.316954 -2.262768 -6.662786 -0.029368 -2.547112 0.019868 -0.936169 0.000000 0.000000 0.000000 -14.806329 -0.948955 -5.189379 -14.738706 -30.705204 3.247845 34.441878 9.109735 -12.518835 -1.531002 8.544159 -5.414073 -1.669639 0.529092 0.155531 0.000000 0.000000 0.000000 -14.992410 -2.386056 -5.865124 5.262092 -1.333451 3.023546 13.413027 -0.833869 -0.176411 0.471225 2.400023 -0.397762 0.000000 0.000000 0.000000 11.894262 -0.303454 -0.349251 11.236239 1.035610 1.332198 -1.635003 1.534833 3.421031 0.000000 0.000000 0.000000 12.274166 -0.144690 -0.469172 0.781660 7.279504 -10.192232 -2.105307 -2.445882 -0.562722 81.962721 -69.229821 10.913430 0.083321 -25.335731 1.229270 0.000000 0.000000 0.000000 12.394964 -0.344077 -0.477024 1.555641 -1.272969 10.837802 5.883285 0.389320 -2.335488 6.194787 35.266422 58.437726 -0.948798 27.668010 0.469699 0.000000 0.000000 0.000000 
-0.406627 83.071358 6.210705 0.000000 0.000000 0.000000 -15.301027 -1.769206 -5.118532 -27.462147 23.413829 9.973677 39.536543 -8.364565 10.315960 -2.288723 -6.677935 0.008700 -2.541270 0.018007 -0.936367 0.000000 0.000000 0.000000 -14.813383 -0.975970 -5.150410 -14.811573 -30.606447 3.208224 34.503404 9.098311 -12.564295 -1.532604 8.556870 -5.392901 -1.629579 0.535078 0.163333 0.000000 0.000000 0.000000 -14.993155 -2.408494 -5.827016 5.253168 -1.331307 2.995195 13.410854 -0.827787 -0.175029 0.471814 2.393375 -0.396227 0.000000 0.000000 0.000000 11.893763 -0.297746 -0.348443 11.280612 1.035991 1.308927 -1.655324 1.508284 3.483559 0.000000 0.000000 0.000000 12.275664 -0.141859 -0.465843 0.782761 7.285379 -10.226849 -2.096229 -2.431476 -0.567593 81.588112 -69.129369 10.623850 0.087042 -25.458019 1.224715 0.000000 0.000000 0.000000 12.388829 -0.339403 -0.472930 1.555934 -1.252999 10.865928 5.871949 0.415715 -2.350398 6.273176 35.251870 58.326407 -0.944832 27.716957 0.471964 0.000000 0.000000 0.000000 
-0.402194 83.059769 6.222469 0.000000 0.000000 0.000000 -15.299274 -1.782761 -5.079255 -27.452923 23.475632 9.945842 39.550969 -8.365697 10.321369 -2.314953 -6.694772 0.038992 -2.536971 0.016872 -0.942595 0.000000 0.000000 0.000000 -14.816333 -0.987232 -5.112523 -14.889964 -30.530925 3.151718 34.589345 9.096540 -12.605134 -1.542723 8.595642 -5.367013 -1.602289 0.545222 0.168230 0.000000 0.000000 0.000000 -14.992305 -2.415939 -5.791180 5.241921 -1.332272 2.962054 13.407332 -0.826831 -0.174299 0.474464 2.389842 -0.395439 0.000000 0.000000 0.000000 11.891271 -0.297080 -0.347402 11.337153 1.036138 1.296086 -1.670137 1.468641 3.574385 0.000000 0.000000 0.000000 12.275838 -0.143492 -0.462965 0.784596 7.289216 -10.247158 -2.079026 -2.430438 -0.570109 81.174094 -69.031807 10.280154 0.091754 -25.591288 1.218734 0.000000 0.000000 0.000000 12.382249 -0.339888 -0.469364 1.556580 -1.227584 10.915640 5.869476 0.450203 -2.372534 6.378099 35.224225 58.198403 -0.936495 27.797868 0.472978 0.000000 0.000000 0.000000 
